HIERARCHY
ROOT SpineBase
{
  OFFSET 0.000000 0.000000 0.000000
  CHANNELS 6 Xposition Yposition Zposition Zrotation Xrotation Yrotation
  JOINT SpineMid
  {
    OFFSET 0.000000 12.154935 0.000000
    CHANNELS 3 Zrotation Xrotation Yrotation
    JOINT SpineShoulder
    {
      OFFSET -0.384417 8.889512 -0.411066
      CHANNELS 3 Zrotation Xrotation Yrotation
      JOINT Neck
      {
        OFFSET -0.158583 2.900334 -0.296159
        CHANNELS 3 Zrotation Xrotation Yrotation
        JOINT Head
        {
          OFFSET 0.596763 8.067712 2.696510
          CHANNELS 3 Zrotation Xrotation Yrotation
          End Site
          {
            OFFSET 0 0 0
          }
        }
      }
      JOINT ShoulderLeft
      {
        OFFSET -6.528801 2.217543 2.841776
        CHANNELS 3 Zrotation Xrotation Yrotation
        JOINT ElbowLeft
        {
          OFFSET -3.098000 -15.099879 0.454674
          CHANNELS 3 Zrotation Xrotation Yrotation
          JOINT WristLeft
          {
            OFFSET -0.884483 -9.726143 -5.972193
            CHANNELS 3 Zrotation Xrotation Yrotation
            JOINT HandLeft
            {
              OFFSET 2.759774 1.315336 -4.757135
              CHANNELS 3 Zrotation Xrotation Yrotation
              JOINT HandTipLeft
              {
                OFFSET -6.281916 -4.203846 -5.527191
                CHANNELS 3 Zrotation Xrotation Yrotation
                End Site
                {
                  OFFSET 0 0 0
                }
              }
              JOINT ThumbLeft
              {
                OFFSET -0.437072 0.364646 -1.034281
                CHANNELS 3 Zrotation Xrotation Yrotation
                End Site
                {
                  OFFSET 0 0 0
                }
              }
            }
          }
        }
      }
      JOINT ShoulderRight
      {
        OFFSET 5.243084 -2.629680 -5.271412
        CHANNELS 3 Zrotation Xrotation Yrotation
        JOINT ElbowRight
        {
          OFFSET -0.399721 -10.779561 -11.300995
          CHANNELS 3 Zrotation Xrotation Yrotation
          JOINT WristRight
          {
            OFFSET -3.139782 -7.477972 -13.482106
            CHANNELS 3 Zrotation Xrotation Yrotation
            JOINT HandRight
            {
              OFFSET -0.581600 1.737559 -5.027553
              CHANNELS 3 Zrotation Xrotation Yrotation
              JOINT HandTipRight
              {
                OFFSET 0.017550 -1.158497 -3.656310
                CHANNELS 3 Zrotation Xrotation Yrotation
                End Site
                {
                  OFFSET 0 0 0
                }
              }
              JOINT ThumbRight
              {
                OFFSET -1.733954 -2.293038 0.452346
                CHANNELS 3 Zrotation Xrotation Yrotation
                End Site
                {
                  OFFSET 0 0 0
                }
              }
            }
          }
        }
      }
    }
  }
  JOINT HipLeft
  {
    OFFSET -1.893356 0.709781 2.022027
    CHANNELS 3 Zrotation Xrotation Yrotation
    JOINT KneeLeft
    {
      OFFSET -16.553254 -4.844614 -18.823091
      CHANNELS 3 Zrotation Xrotation Yrotation
      JOINT AnkleLeft
      {
        OFFSET -25.428462 -1.695395 0.934754
        CHANNELS 3 Zrotation Xrotation Yrotation
        JOINT FootLeft
        {
          OFFSET -5.245088 -3.472745 -4.946655
          CHANNELS 3 Zrotation Xrotation Yrotation
          End Site
          {
            OFFSET 0 0 0
          }
        }
      }
    }
  }
  JOINT HipRight
  {
    OFFSET 0.200590 -1.118553 -5.341968
    CHANNELS 3 Zrotation Xrotation Yrotation
    JOINT KneeRight
    {
      OFFSET -13.376429 -4.045354 -21.877382
      CHANNELS 3 Zrotation Xrotation Yrotation
      JOINT AnkleRight
      {
        OFFSET -9.551758 -10.911475 1.450188
        CHANNELS 3 Zrotation Xrotation Yrotation
        JOINT FootRight
        {
          OFFSET -8.148043 3.194730 -0.384729
          CHANNELS 3 Zrotation Xrotation Yrotation
          End Site
          {
            OFFSET 0 0 0
          }
        }
      }
    }
  }
}
MOTION
Frames: 7
Frame Time: 0.033333
222.504026 16.192232 440.906091 -2.767422 0.771733 7.426914 -0.966842 -0.620780 -7.604850 1.076886 0.155247 -0.081440 -2.270334 -3.865795 1.994466 0.000000 0.000000 0.000000 6.128948 -0.039968 0.347106 -24.695194 -16.104469 12.256237 11.296100 -75.140150 44.179150 65.481804 13.556908 -103.384138 0.000000 0.000000 0.000000 0.000000 0.000000 0.000000 8.392616 -0.575463 -5.827477 -8.072336 -6.293494 14.270151 6.759926 -24.300948 -1.386316 -7.981551 -0.369753 13.940160 0.000000 0.000000 0.000000 0.000000 0.000000 0.000000 -5.140407 2.244631 10.483838 41.646210 -2.131892 31.267336 -39.493281 38.687855 -32.615817 0.000000 0.000000 0.000000 3.666277 -2.947012 -8.688392 -5.854200 3.260402 -0.489673 18.819289 -7.858436 -8.873055 0.000000 0.000000 0.000000
221.958258 16.020800 440.979611 -4.421300 0.086138 7.203752 -0.006246 -0.042253 -7.405131 1.213661 0.143799 -0.110815 -2.072668 -3.383480 2.178215 0.000000 0.000000 0.000000 7.024172 -0.307803 0.488265 -27.341871 -15.181470 13.576431 21.614245 -78.557189 54.736039 65.716218 12.400982 -108.153271 0.000000 0.000000 0.000000 0.000000 0.000000 0.000000 8.363027 -0.736338 -5.052342 -7.349601 -7.022833 14.136789 5.933957 -21.903658 -3.254552 -7.541901 0.194981 15.605042 0.000000 0.000000 0.000000 0.000000 0.000000 0.000000 -3.381769 3.346899 8.970681 30.108133 -7.012838 9.483928 -35.335687 21.950611 -12.988288 0.000000 0.000000 0.000000 5.356896 -2.156307 -9.052990 -4.754661 3.616718 -0.428990 17.577128 -8.386098 -8.303162 0.000000 0.000000 0.000000
221.710150 15.900585 441.025292 -5.047791 -0.243335 7.903846 0.188490 0.370557 -8.119370 1.118614 0.256949 -0.135152 -1.838845 -2.792571 2.294161 0.000000 0.000000 0.000000 7.052696 -1.981836 0.879747 -28.221074 -15.307249 14.720340 35.271206 -81.357833 69.523916 69.654217 12.326682 -113.138156 0.000000 0.000000 0.000000 0.000000 0.000000 0.000000 7.361395 -4.196226 -3.177058 -6.157992 -1.924124 11.620766 5.272387 -21.408786 -3.481907 -7.499186 12.303322 12.594966 0.000000 0.000000 0.000000 0.000000 0.000000 0.000000 -1.682338 3.673968 5.243130 16.350027 -6.330706 -4.989322 -20.832736 9.907750 -2.079611 0.000000 0.000000 0.000000 5.990561 -1.875196 -10.034917 -5.283595 4.558027 -1.105222 18.086457 -9.031822 -6.973923 0.000000 0.000000 0.000000
221.723363 15.677854 441.077679 -4.969767 -0.620107 12.971722 -0.090180 0.636469 -13.212836 0.816438 0.230275 -0.186955 -1.275698 -1.331474 2.347437 0.000000 0.000000 0.000000 8.044455 -1.607390 0.913835 -30.384297 -16.256820 15.554911 58.977309 -80.811017 94.296040 72.276988 13.123476 -116.722766 0.000000 0.000000 0.000000 0.000000 0.000000 0.000000 7.154920 -5.273201 -2.224080 -5.149849 0.214423 9.765558 4.686844 -20.368485 -3.371906 -6.778408 19.372933 9.434333 0.000000 0.000000 0.000000 0.000000 0.000000 0.000000 0.621494 2.912050 -3.609066 5.115688 -3.101413 -10.716423 -4.264638 2.543147 2.611142 0.000000 0.000000 0.000000 5.780574 -1.692627 -15.589472 -6.501860 4.983064 -1.405402 19.597085 -8.971921 -5.001021 0.000000 0.000000 0.000000
221.697694 15.418211 440.886082 -4.876772 0.015009 16.084959 -0.660744 0.526461 -16.315378 0.579064 0.324892 -0.220293 -0.156686 -0.913372 2.208187 0.000000 0.000000 0.000000 5.670404 -1.936917 0.813879 -29.503432 -15.582608 16.782723 69.767616 -74.886841 105.459866 71.372527 15.956712 -117.671568 0.000000 0.000000 0.000000 0.000000 0.000000 0.000000 7.194006 -6.729402 -1.388456 -4.153065 2.309580 7.749909 3.632435 -17.074555 -3.727356 -4.826346 23.683197 5.391192 0.000000 0.000000 0.000000 0.000000 0.000000 0.000000 2.082894 0.516426 -8.950732 1.542077 -0.707416 -15.059808 4.992882 -2.377612 7.156231 0.000000 0.000000 0.000000 5.377819 -2.318540 -18.814131 -7.759054 5.217870 -1.765076 21.149409 -8.638757 -3.227635 0.000000 0.000000 0.000000
221.723368 15.245574 440.609844 -4.434715 0.896975 18.788141 -1.244490 0.255364 -18.998803 0.485674 0.420963 -0.216025 0.357105 -0.994573 2.038674 0.000000 0.000000 0.000000 2.656550 -2.006493 0.552183 -27.614957 -14.727606 17.462252 68.005882 -69.920004 103.051970 74.291896 23.588631 -113.142918 0.000000 0.000000 0.000000 0.000000 0.000000 0.000000 7.215640 -8.924840 -1.151059 -4.171064 7.338255 5.992700 4.378316 -18.300753 -0.661314 -4.695799 25.102697 4.063753 0.000000 0.000000 0.000000 0.000000 0.000000 0.000000 2.257813 -1.111752 -13.543189 -0.576138 0.450555 -17.105692 10.013588 -4.867890 12.308396 0.000000 0.000000 0.000000 4.539993 -3.207335 -21.370204 -8.968547 5.304725 -2.047783 22.490046 -8.196588 -2.175285 0.000000 0.000000 0.000000
221.947176 15.106460 440.366112 -3.308903 1.616942 19.533273 -2.119599 0.166098 -19.730932 0.387313 0.608553 -0.185584 0.438404 -1.011996 1.846885 0.000000 0.000000 0.000000 2.782451 -0.831552 0.208066 -28.025913 -14.725601 17.016498 61.956258 -68.198479 95.548003 80.707671 34.897957 -106.647313 0.000000 0.000000 0.000000 0.000000 0.000000 0.000000 7.369798 -10.555521 -1.502568 -4.970401 10.518787 5.967553 4.602983 -17.849226 0.293538 -5.097864 21.708855 5.602143 0.000000 0.000000 0.000000 0.000000 0.000000 0.000000 1.549751 -2.117663 -15.657042 -0.689410 0.757694 -14.848677 9.633520 -5.158572 11.226531 0.000000 0.000000 0.000000 3.130547 -3.551915 -21.711028 -9.866462 5.189433 -2.389312 23.562378 -7.828449 -1.960067 0.000000 0.000000 0.000000
